<svg width="53" height="35" viewBox="0 0 53 35" fill="none" xmlns="http://www.w3.org/2000/svg">
<path d="M28.1588 18.617C31.4341 18.617 34.1139 22.0596 34.1139 22.9203C34.1139 23.7809 31.4341 26.6498 28.1588 26.6498C24.8835 26.6498 22.5015 22.9203 22.5015 22.9203C22.5015 22.9203 24.8835 18.617 28.1588 18.617Z" fill="#FFFDFB"/>
<path d="M18.9285 19.4777L22.5015 22.9203M22.5015 22.9203L18.9285 26.3629M22.5015 22.9203C22.5015 22.9203 24.8835 26.6498 28.1588 26.6498C31.4341 26.6498 34.1139 23.7809 34.1139 22.9203C34.1139 22.0596 31.4341 18.617 28.1588 18.617C24.8835 18.617 22.5015 22.9203 22.5015 22.9203Z" stroke="#FFFDFB" stroke-width="2" stroke-linecap="round" stroke-linejoin="round"/>
<path d="M49.1632 10.9608L49.1632 10.9608C49.0925 10.4839 48.6601 10.1044 48.1209 10.1044H44.0462H43.6487L43.559 9.71717C42.9084 6.9062 40.3392 6.06334 40.0435 5.96874L39.8469 5.90584L39.7519 5.72256C38.3626 3.04144 35.4927 2.90672 35.1708 2.89596L34.968 2.88918L34.8273 2.74301C33.129 0.978969 30.8295 0.961442 29.5968 1.26634L29.4022 1.31449L29.2282 1.21482C28.1355 0.58879 25.922 -0.0174232 23.7716 1.2148L23.5976 1.31448L23.403 1.26635C22.1699 0.961438 19.87 0.979353 18.1721 2.74301L18.0314 2.8891L17.8287 2.89595C17.51 2.90672 14.636 3.04155 13.2475 5.72283L13.1525 5.90629L12.9557 5.96918C12.6555 6.06511 10.0891 6.91213 9.44035 9.71709L9.35076 10.1044H8.95321H4.8789C4.33967 10.1044 3.90727 10.4839 3.83653 10.9608L3.83652 10.9608L0.510279 33.3679L0.51024 33.3681C0.468803 33.6463 0.554184 33.9315 0.75113 34.1502M49.1632 10.9608L0.75113 34.1502M49.1632 10.9608L52.4899 33.3677C52.5311 33.646 52.4456 33.9313 52.2489 34.1499M49.1632 10.9608L52.2489 34.1499M0.75113 34.1502C0.948655 34.3695 1.24061 34.5 1.55266 34.5H51.4471C51.759 34.5 52.0507 34.3696 52.2489 34.1499M0.75113 34.1502L52.2489 34.1499M15.3379 6.13965L15.3378 6.13988C15.1209 6.91908 14.4486 7.4823 13.647 7.59366C13.6403 7.59729 13.6318 7.60203 13.6216 7.60811C13.5692 7.63914 13.4953 7.68941 13.402 7.76021C13.2166 7.90078 12.9823 8.10141 12.7355 8.33675C12.4826 8.5779 12.2297 8.84303 12.0094 9.10481H41.0638C40.8586 8.79828 40.6393 8.49967 40.4358 8.24094C40.2527 8.00811 40.088 7.81463 39.9641 7.68193C39.9242 7.63913 39.8911 7.60554 39.8651 7.5804C39.101 7.44286 38.4668 6.89209 38.2578 6.13967L15.3379 6.13965ZM15.3379 6.13965C15.4343 5.7927 15.846 5.39513 16.4877 5.09424C17.1136 4.80073 17.7868 4.68175 18.2017 4.74936C19.0218 4.88326 19.8537 4.52291 20.2939 3.82168C20.5066 3.48329 20.9311 3.19227 21.4494 3.04481C21.9665 2.89767 22.4934 2.91753 22.8759 3.09789C23.6272 3.45228 24.5283 3.32993 25.151 2.7816C25.4584 2.511 25.9562 2.34732 26.4991 2.34703C27.0421 2.34673 27.5404 2.50983 27.8492 2.78165C28.472 3.32997 29.3726 3.45222 30.1242 3.09794L30.1243 3.09792M15.3379 6.13965L30.1243 3.09792M30.1243 3.09792C30.492 2.92452 31.1666 2.89211 31.8671 3.04928C32.2054 3.1252 32.5217 3.23967 32.7789 3.38088C33.0406 3.52451 33.2121 3.67957 33.3014 3.82177M30.1243 3.09792L35.3943 4.74931M35.3943 4.74931L35.3939 4.74937C34.5742 4.88277 33.7423 4.52367 33.3014 3.82177M35.3943 4.74931C35.8175 4.68008 36.491 4.80287 37.1152 5.09898M35.3943 4.74931L37.1152 5.09898M33.3014 3.82177L33.7248 3.55583L33.3015 3.82183C33.3014 3.82181 33.3014 3.82179 33.3014 3.82177ZM37.1152 5.09898C37.7558 5.40284 38.1637 5.80125 38.2578 6.13958L37.1152 5.09898ZM13.4816 6.60668L13.4815 6.60669C13.326 6.62436 13.1848 6.70451 13.1116 6.74792C13.0148 6.8053 12.9078 6.87988 12.7976 6.96348C12.5758 7.13172 12.3127 7.35813 12.0454 7.61305C11.5197 8.11431 10.9275 8.7737 10.6049 9.36551L10.202 10.1048H11.044H41.9554H42.7979L42.3943 9.36528C42.0646 8.7611 41.6099 8.11617 41.2218 7.62276C41.0272 7.37531 40.8438 7.15889 40.6952 6.99962C40.6218 6.92101 40.5502 6.84905 40.4857 6.79267C40.4542 6.76507 40.4155 6.73336 40.373 6.70518L40.3712 6.70401C40.3458 6.68706 40.2479 6.62196 40.1139 6.6067L40.1137 6.60668C39.6754 6.55697 39.3284 6.25749 39.2213 5.87196L39.2213 5.87187C39.0076 5.10314 38.2604 4.5354 37.5438 4.19548C36.811 3.84785 35.9256 3.64923 35.2332 3.76236C34.7953 3.83364 34.3673 3.63862 34.1482 3.28989L34.1482 3.28982C33.9373 2.95419 33.6099 2.69627 33.2601 2.50427C32.9059 2.30984 32.4981 2.16602 32.086 2.07355C31.2855 1.89392 30.3535 1.88428 29.6978 2.19341C29.3019 2.37997 28.8294 2.31234 28.51 2.03109L28.51 2.03104C27.97 1.55575 27.2116 1.34664 26.4986 1.34703C25.7857 1.34741 25.0283 1.55728 24.4902 2.03107L24.4902 2.03109C24.1707 2.31238 23.6978 2.37993 23.3024 2.19344L23.3024 2.19343C22.6469 1.88427 21.8604 1.88818 21.1757 2.08298C20.4922 2.27744 19.8264 2.68619 19.4471 3.2898L19.447 3.28998C19.2281 3.63854 18.8001 3.83386 18.3628 3.76241L18.3625 3.76237C17.6813 3.65138 16.7979 3.84428 16.0631 4.18884C15.3441 4.52599 14.5911 5.09259 14.3744 5.87166C14.267 6.25759 13.9201 6.55697 13.4816 6.60668ZM13.6677 7.5833C13.6677 7.58331 13.6672 7.58354 13.6662 7.58393L13.6677 7.5833ZM1.06192 33.6576L0.974398 34.2328H1.55623H51.4435H52.0254L51.9378 33.6576L48.4593 10.7964L48.3946 10.3716H47.965H5.03481H4.60513L4.5405 10.7964L1.06192 33.6576Z" fill="#FFFDFB" stroke="#FFFDFB" stroke-width="0.999999"/>
</svg>
